<svg xmlns="http://www.w3.org/2000/svg" width="425.197" height="187.969" viewBox="0 0 425.197 187.969">
  <g id="グループ_265" data-name="グループ 265" transform="translate(-382.677 -355.307)">
    <path id="パス_85" data-name="パス 85" d="M451.629,415.721c9.735-5.565,14.863-14.864,14.863-27.025,0-14.973-9.713-27.372-24.752-31.589-6.659-1.82-14.014-1.81-20.533-1.8l-34.441,0a3.719,3.719,0,0,0-4.089,4.085V479.071a3.722,3.722,0,0,0,4.089,4.085h32.853c42.9,0,51.917-20.145,51.922-37.051v-.022C471.538,431.435,464.49,420.733,451.629,415.721Zm-51.11-39.756a3.719,3.719,0,0,1,4.089-4.085h21.575c8.076,0,21.625,2.293,21.625,17.652,0,13.046-8.352,19.661-24.823,19.661H404.608a3.719,3.719,0,0,1-4.089-4.085Zm18.091,90.623h-14a3.719,3.719,0,0,1-4.089-4.085V428.842a3.719,3.719,0,0,1,4.089-4.085h20.4c19.641,0,28.02,6.33,28.02,21.166C453.025,465.033,437.439,466.588,418.61,466.588Z" fill="#1a1311"/>
    <path id="パス_86" data-name="パス 86" d="M806.755,361.314a3.517,3.517,0,0,0-3.861-3.861h-16.25c-2.627,0-3.362,1.285-4.568,3.874l-34.043,73.568,0-.007,0,.007-34.043-73.568c-1.206-2.589-1.941-3.874-4.568-3.874h-16.25a3.517,3.517,0,0,0-3.861,3.861V477.153a3.512,3.512,0,0,0,3.861,3.857h9.344a3.512,3.512,0,0,0,3.861-3.857V386.492l31.676,68.443c1.206,2.589,1.94,3.874,4.567,3.874h10.833c2.627,0,3.361-1.285,4.567-3.874l31.675-68.443,0,90.661a3.512,3.512,0,0,0,3.861,3.857h9.343a3.513,3.513,0,0,0,3.862-3.857Z" fill="#1a1311"/>
    <path id="パス_87" data-name="パス 87" d="M640.008,414.7c-.163-2.3-1.61-3.678-4.11-3.678H588.477a3.753,3.753,0,0,0-4.126,4.122v8.26a3.753,3.753,0,0,0,4.126,4.121h31.1c1.48.034,2.1,1.41,1.611,3.334a46.174,46.174,0,0,1-90.858-11.633h.038A46.038,46.038,0,0,1,576.5,373.012a48,48,0,0,1,33.2,14.271c2.073,1.893,3.689.975,4.215.55,0,0,8.9-7.391,9.352-7.846.806-1.163,1-2.723-1.883-5.6-14.878-15.458-34.007-18.834-44.888-18.834-32.586,0-63.683,25.907-63.683,63.681a63.682,63.682,0,1,0,127.364,0C640.177,417.708,640.008,414.8,640.008,414.7Z" fill="#1a1311"/>
    <g id="グループ_264" data-name="グループ 264">
      <path id="パス_88" data-name="パス 88" d="M388.7,513.186v7.99h11.544v3.335H388.7v11.8h-4.472v-26.5h16.639v3.371Z" fill="#1a1311"/>
      <path id="パス_89" data-name="パス 89" d="M418.38,536.716c-6.011,0-9.566-3.885-9.566-9.749,0-5.828,3.775-9.6,9.639-9.6,5.974,0,9.492,3.739,9.492,9.6C427.945,532.721,424.28,536.716,418.38,536.716Zm0-16.566c-3.849,0-5.131,3.555-5.131,6.854,0,3.261,1.282,7.037,5.131,7.037,3.811,0,5.13-3.812,5.13-7.037C423.51,523.705,422.227,520.15,418.38,520.15Z" fill="#1a1311"/>
      <path id="パス_90" data-name="パス 90" d="M447.548,521.433c-3.628,0-4.911,2.052-4.911,5.461v9.419h-4.251s.073-8.687,0-13.011c0,0-.073-3.592-.11-5.461h4.141l.11,3.042a6.009,6.009,0,0,1,5.644-3.189c.294,0,.624.037.99.074v3.811A13.218,13.218,0,0,0,447.548,521.433Z" fill="#1a1311"/>
      <path id="パス_91" data-name="パス 91" d="M479.612,543.276h-4.068l2.821-6.963L470.3,517.841h5.021l5.241,14.11,5.277-14.11h4.178Z" fill="#1a1311"/>
      <path id="パス_92" data-name="パス 92" d="M506.363,536.716c-6.011,0-9.566-3.885-9.566-9.749,0-5.828,3.775-9.6,9.639-9.6,5.974,0,9.492,3.739,9.492,9.6C515.928,532.721,512.263,536.716,506.363,536.716Zm0-16.566c-3.849,0-5.131,3.555-5.131,6.854,0,3.261,1.282,7.037,5.131,7.037,3.811,0,5.13-3.812,5.13-7.037C511.493,523.705,510.21,520.15,506.363,520.15Z" fill="#1a1311"/>
      <path id="パス_93" data-name="パス 93" d="M537.73,536.313l-.11-2.786a6.87,6.87,0,0,1-5.973,3.042c-4.618,0-6.744-2.638-6.744-7.037V517.841h4.251v10.042c0,2.932.257,5.68,3.885,5.68,3.592,0,4.508-3.005,4.508-6.047v-9.675H541.8v11.8c0,2.2.073,4.435.146,6.671Z" fill="#1a1311"/>
      <path id="パス_94" data-name="パス 94" d="M562.722,521.433c-3.629,0-4.911,2.052-4.911,5.461v9.419h-4.252s.074-8.687,0-13.011c0,0-.073-3.592-.11-5.461h4.142l.11,3.042a6.007,6.007,0,0,1,5.644-3.189c.293,0,.623.037.989.074v3.811A13.2,13.2,0,0,0,562.722,521.433Z" fill="#1a1311"/>
      <path id="パス_95" data-name="パス 95" d="M597.424,536.642a6.679,6.679,0,0,1-5.718-2.931l-.146,2.6h-4.215c.147-1.8.11-3.482.11-5.205V509.815h4.251V520.59a7,7,0,0,1,6.121-3.189c5.571,0,7.88,4.4,7.88,9.383C605.707,531.878,603.141,536.642,597.424,536.642Zm-.7-16.382c-3.774,0-5.094,3.555-5.094,6.78,0,3.042,1.1,6.707,4.728,6.707,3.885,0,4.984-3.518,4.984-6.817C601.345,523.925,600.356,520.26,596.727,520.26Z" fill="#1a1311"/>
      <path id="パス_96" data-name="パス 96" d="M616.991,527.92v.292c0,3.079,1.576,5.829,4.948,5.829a4.087,4.087,0,0,0,4.324-3.812h4.1c-.7,4.581-4.325,6.487-8.576,6.487-5.9,0-8.979-3.7-8.979-9.346,0-5.791,3.042-9.969,9.2-9.969,6.6,0,8.429,4.764,8.429,10.519Zm4.948-7.807c-3.042,0-4.581,2.419-4.838,5.205h9.2C626.3,522.569,624.98,520.113,621.939,520.113Z" fill="#1a1311"/>
      <path id="パス_97" data-name="パス 97" d="M647.04,536.532c-3.3,0-5.167-1.063-5.167-4.581V520.7h-3.556V517.8h3.556v-3.335l4.251-1.722V517.8h4.214V520.7h-4.214v9.676c0,2.126.183,3.078,2.529,3.078.586,0,1.1-.146,1.759-.182v3.005A27.234,27.234,0,0,1,647.04,536.532Z" fill="#1a1311"/>
      <path id="パス_98" data-name="パス 98" d="M666.755,536.532c-3.3,0-5.167-1.063-5.167-4.581V520.7h-3.556V517.8h3.556v-3.335l4.251-1.722V517.8h4.214V520.7h-4.214v9.676c0,2.126.183,3.078,2.529,3.078.586,0,1.1-.146,1.759-.182v3.005A27.236,27.236,0,0,1,666.755,536.532Z" fill="#1a1311"/>
      <path id="パス_99" data-name="パス 99" d="M682.768,527.92v.292c0,3.079,1.576,5.829,4.948,5.829a4.087,4.087,0,0,0,4.324-3.812h4.105c-.7,4.581-4.324,6.487-8.576,6.487-5.9,0-8.979-3.7-8.979-9.346,0-5.791,3.042-9.969,9.2-9.969,6.6,0,8.429,4.764,8.429,10.519Zm4.948-7.807c-3.042,0-4.581,2.419-4.838,5.205h9.2C692.077,522.569,690.757,520.113,687.716,520.113Z" fill="#1a1311"/>
      <path id="パス_100" data-name="パス 100" d="M715.786,521.433c-3.629,0-4.911,2.052-4.911,5.461v9.419h-4.252s.074-8.687,0-13.011c0,0-.073-3.592-.11-5.461h4.142l.11,3.042a6.008,6.008,0,0,1,5.644-3.189c.293,0,.623.037.989.074v3.811A13.2,13.2,0,0,0,715.786,521.433Z" fill="#1a1311"/>
      <path id="パス_101" data-name="パス 101" d="M740.336,536.313v-26.5h4.251v26.5Z" fill="#1a1311"/>
      <path id="パス_102" data-name="パス 102" d="M755.983,513.59v-3.775h4.544v3.775Zm.146,22.723V517.8h4.252v18.509Z" fill="#1a1311"/>
      <path id="パス_103" data-name="パス 103" d="M781.159,512.673c-2.162,0-2.859.807-2.859,2.969V517.8h4.178v2.859H778.3v15.65h-4.251v-15.65H770.42V517.8h3.666v-1.758c0-3.483.659-6.415,5.607-6.415.99,0,2.016.074,3.078.147v2.969C782.185,512.71,781.672,512.673,781.159,512.673Z" fill="#1a1311"/>
      <path id="パス_104" data-name="パス 104" d="M794.423,527.92v.292c0,3.079,1.577,5.829,4.948,5.829a4.088,4.088,0,0,0,4.325-3.812H807.8c-.7,4.581-4.325,6.487-8.576,6.487-5.9,0-8.979-3.7-8.979-9.346,0-5.791,3.041-9.969,9.2-9.969,6.6,0,8.429,4.764,8.429,10.519Zm4.948-7.807c-3.041,0-4.581,2.419-4.838,5.205h9.2C803.733,522.569,802.413,520.113,799.371,520.113Z" fill="#1a1311"/>
    </g>
  </g>
</svg>
