<?xml version="1.0" encoding="utf-8"?>
<!-- Generator: Adobe Illustrator 24.0.1, SVG Export Plug-In . SVG Version: 6.00 Build 0)  -->
<svg version="1.1" id="グループ_324" xmlns="http://www.w3.org/2000/svg" xmlns:xlink="http://www.w3.org/1999/xlink" x="0px"
	 y="0px" viewBox="0 0 19.6 19.6" style="enable-background:new 0 0 19.6 19.6;" xml:space="preserve">
<g id="グループ_262" transform="translate(0 0)">
	<g id="グループ_2" transform="translate(0 11.314) rotate(-45)">
		<g id="パス_83">
			<path d="M8-2.7c-3.3,0-6,2.7-6,6s2.7,6,6,6s6-2.7,6-6S11.3-2.7,8-2.7 M8-4.7c4.4,0,8,3.6,8,8s-3.6,8-8,8s-8-3.6-8-8
				S3.6-4.7,8-4.7z"/>
		</g>
		<path id="パス_84" d="M8,9.3c0.6,0,1,0.4,1,1v8c0,0.6-0.4,1-1,1c-0.6,0-1-0.4-1-1v-8C7,9.8,7.4,9.3,8,9.3z"/>
	</g>
</g>
</svg>
