<svg xmlns="http://www.w3.org/2000/svg" width="40.002" height="40" viewBox="0 0 40.002 40">
  <g id="BGMロゴ" transform="translate(-8.021)">
    <g id="グループ_93" data-name="グループ 93" transform="translate(8.021)">
      <path id="パス_58" data-name="パス 58" d="M692.758,387.954v-1.531c-.121,0-7.141.044-14.216.057.029-2.831.036-6.645-.07-10.081a12.858,12.858,0,0,0-25.715.023,12.64,12.64,0,0,0,3.791,9.048,13.2,13.2,0,0,0,9.036,3.809c2.121.046,5.94.067,10.06.061-.016.823-.028,1.313-.029,1.331v.038a10,10,0,1,1-20,0h-2.857a12.858,12.858,0,0,0,25.715.018c0-.1.015-.6.029-1.389,7.043-.011,14.021-.056,14.257-.057Zm-17.073-1.472c-4.11,0-7.929-.013-10.039-.059a10,10,0,1,1,9.968-10v.044C675.72,379.878,675.714,383.674,675.684,386.482Z" transform="translate(-652.756 -363.565)" fill="#1a1311"/>
    </g>
  </g>
</svg>
