<svg xmlns="http://www.w3.org/2000/svg" width="129.367" height="30" viewBox="0 0 129.367 30">
  <g id="グループ_267" data-name="グループ 267" transform="translate(-895 -2576)">
    <path id="パス_59" data-name="パス 59" d="M729.722,387.77a6.265,6.265,0,0,0,3.182-5.786,6.962,6.962,0,0,0-5.3-6.762,16.8,16.8,0,0,0-4.4-.385h-7.373a.8.8,0,0,0-.875.874v25.621a.8.8,0,0,0,.875.874h7.033c9.185,0,11.114-4.313,11.115-7.932v0A6.507,6.507,0,0,0,729.722,387.77Zm-10.942-8.511a.8.8,0,0,1,.875-.874h4.619c1.729,0,4.63.491,4.63,3.779,0,2.793-1.788,4.209-5.314,4.209h-3.934a.8.8,0,0,1-.875-.874Zm3.873,19.4h-3a.8.8,0,0,1-.875-.874v-7.206a.8.8,0,0,1,.875-.874h4.367c4.2,0,6,1.355,6,4.531C730.021,398.327,726.684,398.66,722.653,398.66Z" transform="translate(218.619 2202.1)" fill="#fff"/>
    <path id="パス_60" data-name="パス 60" d="M952.706,377.152a.753.753,0,0,0-.827-.827H948.4c-.563,0-.72.275-.978.829l-7.288,15.75v0l-7.288-15.75c-.258-.554-.416-.829-.978-.829h-3.479a.753.753,0,0,0-.827.827v24.8a.752.752,0,0,0,.827.826h2a.752.752,0,0,0,.827-.826V382.542L938,397.194c.258.554.416.829.978.829h2.319c.562,0,.719-.275.978-.829l6.781-14.652v19.409a.752.752,0,0,0,.827.826h2a.752.752,0,0,0,.827-.826Z" transform="translate(71.661 2201.071)" fill="#fff"/>
    <path id="パス_61" data-name="パス 61" d="M832.422,387.669a.794.794,0,0,0-.88-.787H821.39a.8.8,0,0,0-.883.882v1.768a.8.8,0,0,0,.883.882h6.657c.316.007.45.3.345.714a9.885,9.885,0,0,1-19.451-2.49h.008a9.856,9.856,0,0,1,9.876-9.895,10.278,10.278,0,0,1,7.109,3.055.651.651,0,0,0,.9.118s1.9-1.582,2-1.68c.173-.249.214-.583-.4-1.2a13.584,13.584,0,1,0,4.023,9.6C832.458,388.312,832.422,387.688,832.422,387.669Z" transform="translate(156.248 2201.984)" fill="#fff"/>
    <path id="パス_62" data-name="パス 62" d="M599.61,401.8a9.613,9.613,0,0,1-9.6-9.489h1.932a7.67,7.67,0,0,0,15.339-.113v-.026c0-.12.011-.47.021-1.007l0-.115h-1.211c-2.784,0-5.155-.017-6.5-.046a9.861,9.861,0,0,1-6.751-2.847,9.438,9.438,0,0,1-2.831-6.755,9.6,9.6,0,0,1,19.2-.017c.082,2.658.074,5.608.053,7.616l0,.115h.115c4.76-.008,9.526-.035,10.622-.042l.007,1.044v.889c-1.4.009-6.011.035-10.661.043h-.111l0,.111c-.011.595-.02.973-.022,1.049A9.616,9.616,0,0,1,599.61,401.8Zm0-28.068a7.67,7.67,0,1,0,.021,15.34c1.722.037,4.757.045,7,.045h.7v-.112c.021-2,.029-4.942-.052-7.573V381.4A7.678,7.678,0,0,0,599.61,373.736Z" transform="translate(304.992 2204.197)" fill="#fff"/>
  </g>
</svg>
