<svg id="グループ_17" data-name="グループ 17" xmlns="http://www.w3.org/2000/svg" width="20" height="20" viewBox="0 0 20 20">
  <path id="パス_4" data-name="パス 4" d="M10,0A10,10,0,1,0,20,10,10,10,0,0,0,10,0Zm5.022,8.1c0,.1.007.207.007.312A6.856,6.856,0,0,1,4.475,14.192a4.909,4.909,0,0,0,.575.033,4.837,4.837,0,0,0,2.994-1.032,2.413,2.413,0,0,1-2.252-1.674,2.406,2.406,0,0,0,1.089-.041A2.412,2.412,0,0,1,4.947,9.114c0-.011,0-.021,0-.031a2.393,2.393,0,0,0,1.092.3,2.413,2.413,0,0,1-.746-3.218,6.844,6.844,0,0,0,4.969,2.519,2.412,2.412,0,0,1,4.108-2.2A4.831,4.831,0,0,0,15.9,5.9a2.419,2.419,0,0,1-1.06,1.334,4.813,4.813,0,0,0,1.384-.379A4.9,4.9,0,0,1,15.022,8.1Z"/>
</svg>
