<svg xmlns="http://www.w3.org/2000/svg" width="363.988" height="115" viewBox="0 0 363.988 115">
  <g id="グループ_417" data-name="グループ 417" transform="translate(-778 -554)">
    <g id="グループ_368" data-name="グループ 368" transform="translate(-492.234 83.738)">
      <g id="グループ_367" data-name="グループ 367" transform="translate(1352.234 470.262)">
        <path id="パス_193" data-name="パス 193" d="M1406.218,470.262h17.91v40.81q0,15.748-9.315,23.879t-26.606,8.131q-17.086,0-26.53-8.234t-9.443-23.672V470.262h17.961v41.324q0,7.515,4.915,12.042T1388,528.158q8.285,0,13.252-4.632t4.966-13.174Z" transform="translate(-1352.234 -470.262)" fill="#fff"/>
        <path id="パス_194" data-name="パス 194" d="M1566.456,470.262v71.894h-15.125l-39.683-46.06v46.06h-17.91V470.262h16.423l38.386,43.949V470.262Z" transform="translate(-1403.672 -470.262)" fill="#fff"/>
        <path id="パス_195" data-name="パス 195" d="M1656.227,470.262v71.894h-17.91V470.262Z" transform="translate(-1456.227 -470.262)" fill="#fff"/>
      </g>
    </g>
    <g id="グループ_369" data-name="グループ 369" transform="translate(-464.481 -61.599)">
      <path id="パス_196" data-name="パス 196" d="M1252.739,719.579v.988a8.855,8.855,0,0,0-4.171-1.13,4.913,4.913,0,0,0-3.642,1.482,5.046,5.046,0,0,0-1.465,3.7,4.954,4.954,0,0,0,1.474,3.693,5.138,5.138,0,0,0,3.759,1.448,8.957,8.957,0,0,0,4.162-1.2v.938a8.816,8.816,0,0,1-4.145,1.1,6.163,6.163,0,0,1-4.45-1.713,6,6,0,0,1,.037-8.563,6.076,6.076,0,0,1,4.329-1.725A9.85,9.85,0,0,1,1252.739,719.579Z" fill="#fff"/>
      <path id="パス_197" data-name="パス 197" d="M1262.858,718.676l5.408,11.782h-.949l-1.85-4.044h-5.722l-1.844,4.044h-.949l5.407-11.782Zm2.263,6.984-2.52-5.51-2.511,5.51Z" transform="translate(-1.853 -0.01)" fill="#fff"/>
      <path id="パス_198" data-name="パス 198" d="M1273.693,718.772h3.225a4.286,4.286,0,0,1,2.835.829,2.8,2.8,0,0,1,.984,2.261,2.855,2.855,0,0,1-.992,2.294,4.374,4.374,0,0,1-2.91.846H1274.6v5.468h-.905Zm.905.754v4.723h2.177a3.461,3.461,0,0,0,2.227-.62,2.371,2.371,0,0,0,.017-3.467,3.2,3.2,0,0,0-2.135-.636Z" transform="translate(-3.996 -0.022)" fill="#fff"/>
      <path id="パス_199" data-name="パス 199" d="M1289.058,727.29v.8H1285v-.8Z" transform="translate(-5.444 -1.113)" fill="#fff"/>
      <path id="パス_200" data-name="パス 200" d="M1295.48,718.772h3a4.446,4.446,0,0,1,2.881.816,2.706,2.706,0,0,1,1,2.207,2.921,2.921,0,0,1-2.226,2.847,5.252,5.252,0,0,1,1.557,1.784l2.646,4.044h-1.071l-2.038-3.206a7.813,7.813,0,0,0-1.59-2.006,2.9,2.9,0,0,0-1.665-.4h-1.582v5.61h-.9Zm.9.754v4.58h1.942a3.68,3.68,0,0,0,2.265-.6,2.012,2.012,0,0,0,.783-1.7,1.991,1.991,0,0,0-.8-1.683,3.729,3.729,0,0,0-2.286-.6Z" transform="translate(-6.786 -0.022)" fill="#fff"/>
      <path id="パス_201" data-name="パス 201" d="M1315.789,718.772v.754h-5.477v4.681h5.335v.762h-5.335v4.748h5.61v.753h-6.515v-11.7Z" transform="translate(-8.569 -0.022)" fill="#fff"/>
      <path id="パス_202" data-name="パス 202" d="M1321.862,718.772h3.225a4.286,4.286,0,0,1,2.835.829,2.8,2.8,0,0,1,.984,2.261,2.855,2.855,0,0,1-.992,2.294A4.375,4.375,0,0,1,1325,725h-2.237v5.468h-.9Zm.9.754v4.723h2.178a3.46,3.46,0,0,0,2.227-.62,2.371,2.371,0,0,0,.017-3.467,3.2,3.2,0,0,0-2.135-.636Z" transform="translate(-10.163 -0.022)" fill="#fff"/>
      <path id="パス_203" data-name="パス 203" d="M1334.681,718.772v10.945h5.785v.753h-6.691v-11.7Z" transform="translate(-11.689 -0.022)" fill="#fff"/>
      <path id="パス_204" data-name="パス 204" d="M1350.558,718.676l5.408,11.782h-.949l-1.85-4.044h-5.721l-1.844,4.044h-.949l5.408-11.782Zm2.264,6.984-2.521-5.51-2.511,5.51Z" transform="translate(-13.082 -0.01)" fill="#fff"/>
      <path id="パス_205" data-name="パス 205" d="M1370.073,719.579v.988a8.854,8.854,0,0,0-4.171-1.13,4.913,4.913,0,0,0-3.642,1.482,5.047,5.047,0,0,0-1.465,3.7,4.955,4.955,0,0,0,1.474,3.693,5.138,5.138,0,0,0,3.759,1.448,8.957,8.957,0,0,0,4.162-1.2v.938a8.816,8.816,0,0,1-4.145,1.1,6.163,6.163,0,0,1-4.451-1.713,5.995,5.995,0,0,1,.037-8.563,6.076,6.076,0,0,1,4.329-1.725A9.849,9.849,0,0,1,1370.073,719.579Z" transform="translate(-15.023)" fill="#fff"/>
      <path id="パス_206" data-name="パス 206" d="M1382.755,718.772v.754h-5.476v4.681h5.334v.762h-5.334v4.748h5.61v.753h-6.514v-11.7Z" transform="translate(-17.143 -0.022)" fill="#fff"/>
      <path id="パス_207" data-name="パス 207" d="M1393.275,718.676l5.408,11.782h-.949l-1.85-4.044h-5.722l-1.843,4.044h-.949l5.407-11.782Zm2.263,6.984-2.52-5.51-2.511,5.51Z" transform="translate(-18.551 -0.01)" fill="#fff"/>
      <path id="パス_208" data-name="パス 208" d="M1403.953,718.772h2.436a4.519,4.519,0,0,1,2.906.8,2.706,2.706,0,0,1,.988,2.219,2.843,2.843,0,0,1-1.684,2.6q2.706.587,2.706,2.965a2.74,2.74,0,0,1-1.059,2.264,4.484,4.484,0,0,1-2.868.842h-3.425Zm.9.754v4.664h1.256q3.19,0,3.19-2.328t-3.224-2.336Zm0,5.425v4.765h2.421a3.492,3.492,0,0,0,2.277-.645,2.123,2.123,0,0,0,.78-1.725q0-2.395-3.45-2.4Z" transform="translate(-20.674 -0.022)" fill="#fff"/>
      <path id="パス_209" data-name="パス 209" d="M1417.243,718.772v10.945h5.786v.753h-6.691v-11.7Z" transform="translate(-22.26 -0.022)" fill="#fff"/>
      <path id="パス_210" data-name="パス 210" d="M1433.915,718.772v.754h-5.477v4.681h5.335v.762h-5.335v4.748h5.61v.753h-6.514v-11.7Z" transform="translate(-23.693 -0.022)" fill="#fff"/>
      <path id="パス_211" data-name="パス 211" d="M1451.391,720.715l-3.92,9.872h-.244l-4.707-11.815h.928l3.874,9.7,3.926-9.7h.282l3.906,9.7,3.883-9.7h.928l-4.717,11.815h-.218Z" transform="translate(-25.612 -0.022)" fill="#fff"/>
      <path id="パス_212" data-name="パス 212" d="M1468.006,718.772v11.7h-.9v-11.7Z" transform="translate(-28.759 -0.022)" fill="#fff"/>
      <path id="パス_213" data-name="パス 213" d="M1473.179,718.772h3a4.445,4.445,0,0,1,2.881.816,2.7,2.7,0,0,1,1,2.207,2.922,2.922,0,0,1-2.227,2.847,5.255,5.255,0,0,1,1.557,1.784l2.646,4.044h-1.07l-2.038-3.206a7.831,7.831,0,0,0-1.591-2.006,2.9,2.9,0,0,0-1.665-.4h-1.582v5.61h-.9Zm.9.754v4.58h1.942a3.68,3.68,0,0,0,2.265-.6,2.2,2.2,0,0,0-.012-3.379,3.729,3.729,0,0,0-2.286-.6Z" transform="translate(-29.537 -0.022)" fill="#fff"/>
      <path id="パス_214" data-name="パス 214" d="M1492.819,718.772v.754h-5.476v4.681h5.334v.762h-5.334v4.748h5.609v.753h-6.514v-11.7Z" transform="translate(-31.235 -0.022)" fill="#fff"/>
      <path id="パス_215" data-name="パス 215" d="M1499.5,718.772v10.945h5.786v.753H1498.6v-11.7Z" transform="translate(-32.792 -0.022)" fill="#fff"/>
      <path id="パス_216" data-name="パス 216" d="M1516.468,718.772v.754h-5.476v4.681h5.334v.762h-5.334v4.748h5.61v.753h-6.514v-11.7Z" transform="translate(-34.263 -0.022)" fill="#fff"/>
      <path id="パス_217" data-name="パス 217" d="M1527.489,719.337v1a5.414,5.414,0,0,0-2.621-.9,2.525,2.525,0,0,0-1.762.64,2.056,2.056,0,0,0-.708,1.587,1.95,1.95,0,0,0,.419,1.222,4.043,4.043,0,0,0,1.749,1.047,16.536,16.536,0,0,1,1.943.837,2.958,2.958,0,0,1,1.039.971,2.91,2.91,0,0,1,.427,1.649,3.008,3.008,0,0,1-.988,2.278,3.393,3.393,0,0,1-2.412.93,5.431,5.431,0,0,1-3-1.022v-1.063a5.283,5.283,0,0,0,2.948,1.247,2.462,2.462,0,0,0,1.753-.674,2.261,2.261,0,0,0,.272-3,4.048,4.048,0,0,0-1.8-1.12,17.9,17.9,0,0,1-1.937-.838,2.858,2.858,0,0,1-.989-.909,2.615,2.615,0,0,1-.407-1.519,2.874,2.874,0,0,1,.989-2.2,3.39,3.39,0,0,1,2.377-.909A5.558,5.558,0,0,1,1527.489,719.337Z" transform="translate(-35.714)" fill="#fff"/>
      <path id="パス_218" data-name="パス 218" d="M1539.057,719.337v1a5.413,5.413,0,0,0-2.621-.9,2.527,2.527,0,0,0-1.762.64,2.056,2.056,0,0,0-.708,1.587,1.955,1.955,0,0,0,.419,1.222,4.042,4.042,0,0,0,1.75,1.047,16.574,16.574,0,0,1,1.942.837,2.961,2.961,0,0,1,1.039.971,2.909,2.909,0,0,1,.426,1.649,3.008,3.008,0,0,1-.988,2.278,3.393,3.393,0,0,1-2.412.93,5.433,5.433,0,0,1-3-1.022v-1.063a5.288,5.288,0,0,0,2.948,1.247,2.464,2.464,0,0,0,1.755-.674,2.262,2.262,0,0,0,.271-3,4.042,4.042,0,0,0-1.8-1.12,17.943,17.943,0,0,1-1.938-.838,2.873,2.873,0,0,1-.989-.909,2.62,2.62,0,0,1-.407-1.519,2.874,2.874,0,0,1,.989-2.2,3.39,3.39,0,0,1,2.378-.909A5.554,5.554,0,0,1,1539.057,719.337Z" transform="translate(-37.195)" fill="#fff"/>
      <path id="パス_219" data-name="パス 219" d="M1556.561,718.772v.754h-5.476v4.681h5.334v.762h-5.334v4.748h5.609v.753h-6.514v-11.7Z" transform="translate(-39.396 -0.022)" fill="#fff"/>
      <path id="パス_220" data-name="パス 220" d="M1566.864,718.676l5.408,11.782h-.949l-1.85-4.044h-5.722l-1.843,4.044h-.949l5.407-11.782Zm2.263,6.984-2.52-5.51-2.511,5.51Z" transform="translate(-40.776 -0.01)" fill="#fff"/>
      <path id="パス_221" data-name="パス 221" d="M1577.523,718.772h3a4.446,4.446,0,0,1,2.881.816,2.706,2.706,0,0,1,1,2.207,2.921,2.921,0,0,1-2.226,2.847,5.253,5.253,0,0,1,1.557,1.784l2.646,4.044H1585.3l-2.038-3.206a7.818,7.818,0,0,0-1.59-2.006,2.9,2.9,0,0,0-1.666-.4h-1.582v5.61h-.9Zm.9.754v4.58h1.942a3.68,3.68,0,0,0,2.265-.6,2.011,2.011,0,0,0,.783-1.7,1.991,1.991,0,0,0-.8-1.683,3.729,3.729,0,0,0-2.286-.6Z" transform="translate(-42.897 -0.022)" fill="#fff"/>
      <path id="パス_222" data-name="パス 222" d="M1591.609,718.772h3.225a4.285,4.285,0,0,1,2.835.829,2.8,2.8,0,0,1,.984,2.261,2.855,2.855,0,0,1-.992,2.294,4.375,4.375,0,0,1-2.91.846h-2.236v5.468h-.905Zm.905.754v4.723h2.177a3.46,3.46,0,0,0,2.227-.62,2.371,2.371,0,0,0,.017-3.467,3.2,3.2,0,0,0-2.135-.636Z" transform="translate(-44.701 -0.022)" fill="#fff"/>
      <path id="パス_223" data-name="パス 223" d="M1613.439,718.772v11.7h-.913v-5.544h-7.8v5.544h-.905v-11.7h.905v5.4h7.8v-5.4Z" transform="translate(-46.264 -0.022)" fill="#fff"/>
      <path id="パス_224" data-name="パス 224" d="M1624.746,718.6a6.089,6.089,0,0,1,4.4,1.747,5.912,5.912,0,0,1,0,8.507,6.394,6.394,0,0,1-8.783,0,5.934,5.934,0,0,1,0-8.507A6.052,6.052,0,0,1,1624.746,718.6Zm.033,11.162a5.03,5.03,0,0,0,3.689-1.495,5.225,5.225,0,0,0,0-7.335,5.03,5.03,0,0,0-3.689-1.495,5.1,5.1,0,0,0-3.713,1.495,5.183,5.183,0,0,0,0,7.335A5.1,5.1,0,0,0,1624.779,729.761Z" transform="translate(-48.152)" fill="#fff"/>
      <path id="パス_225" data-name="パス 225" d="M1646.6,718.772v11.7h-.744l-8.894-10.225V730.47h-.9v-11.7h.765L1645.7,729V718.772Z" transform="translate(-50.392 -0.022)" fill="#fff"/>
      <path id="パス_226" data-name="パス 226" d="M1658.825,718.772v.754h-5.477v4.681h5.335v.762h-5.335v4.748h5.61v.753h-6.515v-11.7Z" transform="translate(-52.49 -0.022)" fill="#fff"/>
    </g>
  </g>
</svg>
